<svg xmlns="http://www.w3.org/2000/svg" viewBox="0 0 2091.13 791.41"><defs><style>.cls-1{fill:#a00249;}.cls-2{fill:#102010;}</style></defs><title>Ресурс 11</title><g id="Слой_2" data-name="Слой 2"><g id="Слой_1-2" data-name="Слой 1"><path class="cls-1" d="M430,791.41c-93.37-.7-171.54-21.89-242.76-66.65S62.76,619.47,29.46,541.92a351.11,351.11,0,0,1-27-101.86c-12.78-120.62,24.4-224.3,107.8-311.38,54.93-57.35,122.1-94.51,198.83-114.57A437.66,437.66,0,0,1,404.66.3C465.19-1.84,523.87,7.47,580.3,29.52c89.47,35,160.16,92.63,209.41,175.54A362.92,362.92,0,0,1,839,351.29c11.18,99.27-13.37,189.21-72.25,269.56C721.26,683,661.89,727.81,591,757.48a416.42,416.42,0,0,1-113.72,30C458.43,789.68,439.5,790.65,430,791.41ZM603.41,503.8c-.89,1.11-1.54,1.84-2.1,2.63A224.41,224.41,0,0,1,571.11,541c-49,45.68-107.1,62.21-172.53,50.78-54.9-9.58-98.8-38.35-131-83.76-33.75-47.54-44.63-100.34-31.49-157.29,10.45-45.3,34.71-82.48,71.14-111.18,51-40.17,108.75-54,172.25-39.95,49.62,11,88.74,38.73,119.24,79,1,1.34,2,2.69,3.15,4.25,27-27.75,53.57-55.06,80.28-82.51-.87-1.11-1.57-2.12-2.37-3C618.57,128.38,542.53,89.62,450,85.12,407,83,364.89,88.36,324.27,103c-83.9,30.26-145.56,85.35-183.4,166.32C114.82,325,108.18,383.68,117.54,444.09c10.67,68.82,42.38,127,93,174.39C264.62,669.08,329,697.92,403,704.71c38.54,3.54,76.72,1.2,114.18-8.87C583.75,678,638.41,641.35,682.8,589a20.22,20.22,0,0,0,1.41-2.1Z"/><path class="cls-2" d="M400.42,342.31c5.09-24.13,11.05-49.73,14.38-71.17h69.86c-.88,9.37-4,30.36-7.51,46.85,21.31-38,49.59-52.35,92.44-51.94l-17.18,71.08c-49.26-.65-82.78,21.12-97.93,95.21l-16.61,80.31H364.54Z"/><path class="cls-2" d="M649.14,408.76c-.06,1.22-.11,5-.11,6.75,0,27,14.44,48.28,49.08,48.28,27.8,0,39.76-8.62,49.57-22.82h75.55C807,482.12,767.79,519.2,692.37,519.2c-80.21,0-115.08-50-115.08-110.05,0-66.44,45.84-144.56,147.44-144.56,79.76,0,114.09,46.58,114.09,103a126.28,126.28,0,0,1-6.15,41.13Zm120-45.88c0-.88.06-3,.06-4.94,0-25.35-15.82-41.64-48.21-41.64-34.26,0-53.9,19.68-61.17,46.58Z"/><path class="cls-2" d="M896.2,338.63c4.67-22.79,9.7-48.4,13.09-67.49h70.8c-.47,6.32-1.85,17.85-3.89,29.48,17.07-20.08,39.09-36,76-36,42,0,56.07,19,61.81,40,16.83-19.75,41.41-40,87.74-40,56.16,0,81.64,35.94,67.57,102.18l-30.85,145.88H1166.8L1196,374.34c5-22.26,6.13-51.35-27.54-51.35-30.35,0-47.6,22.3-56,62.4l-27,127.26h-72.5l29.2-138.36c4.9-22.21,7-51.3-26.95-51.3-32.14,0-49.76,28.23-57.57,65.84L931.53,512.65H859.44Z"/><path class="cls-2" d="M1583.06,375.2c0,72.76-47.66,143.58-152,144-82.43.41-119.8-51.7-119.8-108.85,0-79.11,54.14-145.76,151.27-145.76C1539.64,264.59,1583.06,311.41,1583.06,375.2Zm-197.65,31.69c0,33.48,17.66,56.08,50.11,56.08,48.83,0,71.69-44.08,71.69-89.19,0-30.92-15.53-53.78-50.94-53.78C1411.45,320,1385.41,361.11,1385.41,406.89Z"/><path class="cls-2" d="M1641.28,332.09c4.2-20.46,8.46-42.18,12.09-60.95h71.57c-.69,6.95-3.14,23.31-4.82,31.55,13.36-16.71,38-38.1,84.83-38.1,52.35,0,84.75,31.23,69.63,103.88L1844,512.65H1771l29-138.35c5.7-27.64,2.77-51.31-32.55-51.31-36.5,0-57.68,26.21-67.47,73l-24,116.63h-72.5Z"/><path class="cls-2" d="M1922.83,271.14h41.86l16-72.52h72.92l-16,72.52h53.53l-11.32,53.24h-53.52l-22.21,104.79c-4.48,20.56-3.4,30.41,19.18,30.41,7.22,0,19.42-.58,26-2l-10.84,51.54c-13.11,3.74-30.25,5.5-47.4,5.5-57.18,0-72.51-26.25-62.81-72.9l25.15-117.3h-41.86Z"/></g></g></svg>